<?xml version="1.0" standalone="no"?>
<!DOCTYPE svg PUBLIC "-//W3C//DTD SVG 20010904//EN"
 "http://www.w3.org/TR/2001/REC-SVG-20010904/DTD/svg10.dtd">
<svg version="1.0" xmlns="http://www.w3.org/2000/svg"
 width="1250.000000pt" height="1250.000000pt" viewBox="0 0 1250.000000 1250.000000"
 preserveAspectRatio="xMidYMid meet">

<g transform="translate(0.000000,1250.000000) scale(0.100000,-0.100000)"
fill="#000000" stroke="none">
<path d="M0 6250 l0 -6250 6250 0 6250 0 0 6250 0 6250 -6250 0 -6250 0 0
-6250z m8128 769 c1027 -1029 1869 -1876 1871 -1881 4 -12 -718 -738 -734
-738 -5 0 -685 675 -1510 1500 l-1500 1500 -1500 -1500 c-825 -825 -1504
-1500 -1510 -1500 -12 0 -735 721 -735 734 0 10 3732 3755 3743 3755 5 1 849
-841 1875 -1870z"/>
</g>
</svg>
